<svg width="59" height="58" viewBox="0 0 59 58" fill="none" xmlns="http://www.w3.org/2000/svg">
<mask id="mask0_23_18" style="mask-type:alpha" maskUnits="userSpaceOnUse" x="0" y="0" width="59" height="58">
<rect width="59" height="58" fill="#D9D9D9"/>
</mask>
<g mask="url(#mask0_23_18)">
<path d="M15.2322 42.2545C17.3218 40.7766 19.539 39.6078 21.8839 38.748C24.2288 37.8882 26.7675 37.4583 29.5 37.4583C32.2325 37.4583 34.7712 37.8882 37.1161 38.748C39.461 39.6078 41.6782 40.7766 43.7678 42.2545C45.3909 40.6031 46.6965 38.6527 47.6846 36.4033C48.6726 34.154 49.1667 31.6862 49.1667 29C49.1667 23.6431 47.2512 19.0816 43.4203 15.3156C39.5894 11.5497 34.9493 9.66667 29.5 9.66667C24.0507 9.66667 19.4106 11.5497 15.5797 15.3156C11.7488 19.0816 9.83333 23.6431 9.83333 29C9.83333 31.6862 10.3274 34.154 11.3154 36.4033C12.3035 38.6527 13.6091 40.6031 15.2322 42.2545ZM29.5014 30.2083C27.4298 30.2083 25.6825 29.5094 24.2595 28.1115C22.8365 26.7135 22.125 24.9963 22.125 22.9597C22.125 20.9232 22.836 19.2055 24.258 17.8067C25.6801 16.4078 27.4269 15.7083 29.4986 15.7083C31.5702 15.7083 33.3175 16.4073 34.7405 17.8053C36.1635 19.2032 36.875 20.9204 36.875 22.9569C36.875 24.9935 36.164 26.7112 34.7419 28.11C33.3199 29.5089 31.573 30.2083 29.5014 30.2083ZM29.5 50.75C26.4145 50.75 23.5259 50.1853 20.8344 49.056C18.1428 47.9267 15.8011 46.383 13.8092 44.4249C11.8173 42.4667 10.247 40.1647 9.09817 37.5188C7.94939 34.8728 7.375 32.0332 7.375 29C7.375 25.9668 7.94939 23.1272 9.09817 20.4812C10.247 17.8353 11.8173 15.5333 13.8092 13.5751C15.8011 11.617 18.1428 10.0733 20.8344 8.94396C23.5259 7.81466 26.4145 7.25 29.5 7.25C32.5855 7.25 35.4741 7.81466 38.1656 8.94396C40.8572 10.0733 43.1989 11.617 45.1908 13.5751C47.1827 15.5333 48.753 17.8353 49.9018 20.4812C51.0506 23.1272 51.625 25.9668 51.625 29C51.625 32.0332 51.0506 34.8728 49.9018 37.5188C48.753 40.1647 47.1827 42.4667 45.1908 44.4249C43.1989 46.383 40.8572 47.9267 38.1656 49.056C35.4741 50.1853 32.5855 50.75 29.5 50.75ZM29.5 48.3333C31.7661 48.3333 33.9959 47.9437 36.1895 47.1645C38.3831 46.3853 40.2789 45.3187 41.8768 43.9647C40.2789 42.7038 38.4304 41.7069 36.3313 40.9741C34.2323 40.2414 31.9552 39.875 29.5 39.875C27.0448 39.875 24.7598 40.2336 22.6451 40.9509C20.5302 41.6681 18.6896 42.6727 17.1232 43.9647C18.7211 45.3187 20.6169 46.3853 22.8105 47.1645C25.0041 47.9437 27.2339 48.3333 29.5 48.3333ZM29.5 27.7917C30.8804 27.7917 32.045 27.3254 32.9937 26.3928C33.9423 25.4602 34.4167 24.3154 34.4167 22.9583C34.4167 21.6013 33.9423 20.4565 32.9937 19.5239C32.045 18.5913 30.8804 18.125 29.5 18.125C28.1196 18.125 26.955 18.5913 26.0063 19.5239C25.0577 20.4565 24.5833 21.6013 24.5833 22.9583C24.5833 24.3154 25.0577 25.4602 26.0063 26.3928C26.955 27.3254 28.1196 27.7917 29.5 27.7917Z" fill="#5352ED"/>
</g>
</svg>
