<svg width="30" height="29" viewBox="0 0 30 29" fill="none" xmlns="http://www.w3.org/2000/svg">
<mask id="mask0_32_404" style="mask-type:alpha" maskUnits="userSpaceOnUse" x="0" y="0" width="30" height="29">
<rect width="30" height="29" fill="#D9D9D9"/>
</mask>
<g mask="url(#mask0_32_404)">
<path d="M2.5 28.9999V23.6373H27.5V28.9999H2.5ZM7.72963 18.5478H9.197L18.3641 9.71651L16.8831 8.26784L7.72963 17.1294V18.5478ZM4.96469 21.2206V15.9998L18.841 2.59915C19.1055 2.34347 19.4 2.15236 19.7245 2.02583C20.0489 1.89932 20.3902 1.83606 20.7482 1.83606C21.1063 1.83606 21.4563 1.90075 21.7983 2.03012C22.1402 2.15949 22.4479 2.35354 22.7215 2.61226L24.2283 4.04782C24.5018 4.30349 24.7047 4.59944 24.837 4.93568C24.9692 5.27192 25.0353 5.61252 25.0353 5.9575C25.0353 6.29008 24.9724 6.61711 24.8466 6.93861C24.7207 7.26011 24.5205 7.55388 24.2459 7.81994L10.3655 21.2206H4.96469Z" fill="#5352ED"/>
</g>
</svg>
