<svg width="34" height="34" viewBox="0 0 34 34" fill="none" xmlns="http://www.w3.org/2000/svg">
<mask id="mask0_31_330" style="mask-type:alpha" maskUnits="userSpaceOnUse" x="0" y="0" width="34" height="34">
<rect width="34" height="34" fill="#D9D9D9"/>
</mask>
<g mask="url(#mask0_31_330)">
<path d="M16.8964 29.5C15.1255 29.5 13.4668 29.1635 11.9203 28.4906C10.3738 27.8177 9.02796 26.9087 7.88282 25.7635C6.73768 24.6184 5.82865 23.2726 5.15574 21.726C4.48282 20.1795 4.14636 18.5208 4.14636 16.75C4.14636 14.9792 4.48282 13.3205 5.15574 11.774C5.82865 10.2274 6.73768 8.8816 7.88282 7.73646C9.02796 6.59132 10.3738 5.68229 11.9203 5.00937C13.4668 4.33646 15.1255 4 16.8964 4V7.7542C14.3874 7.7542 12.2609 8.62627 10.5168 10.3704C8.77264 12.1145 7.90056 14.2411 7.90056 16.75C7.90056 19.2589 8.77264 21.3854 10.5168 23.1296C12.2609 24.8737 14.3874 25.7458 16.8964 25.7458V29.5ZM22.563 24.494L19.9191 21.8146L23.1065 18.6271H12.1859V14.8729H23.1065L19.9191 11.65L22.563 9.00604L30.307 16.75L22.563 24.494Z" fill="#5352ED"/>
</g>
</svg>
