<svg width="31" height="30" viewBox="0 0 31 30" fill="none" xmlns="http://www.w3.org/2000/svg">
<path d="M21.625 20.0577C20.5833 20.0577 19.6979 19.6838 18.9687 18.9359C18.2396 18.188 17.875 17.2799 17.875 16.2115C17.875 15.1431 18.2396 14.235 18.9687 13.4872C19.6979 12.7393 20.5833 12.3654 21.625 12.3654C22.6667 12.3654 23.5521 12.7393 24.2813 13.4872C25.0104 14.235 25.375 15.1431 25.375 16.2115C25.375 17.2799 25.0104 18.188 24.2813 18.9359C23.5521 19.6838 22.6667 20.0577 21.625 20.0577ZM21.625 18.391C22.2104 18.391 22.7109 18.1779 23.1265 17.7516C23.5422 17.3253 23.75 16.8119 23.75 16.2115C23.75 15.6111 23.5422 15.0977 23.1265 14.6714C22.7109 14.2452 22.2104 14.032 21.625 14.032C21.0396 14.032 20.5391 14.2452 20.1235 14.6714C19.7078 15.0977 19.5 15.6111 19.5 16.2115C19.5 16.8119 19.7078 17.3253 20.1235 17.7516C20.5391 18.1779 21.0396 18.391 21.625 18.391ZM13 29.8974V26.2179C13 25.8362 13.0888 25.4772 13.2664 25.1409C13.4441 24.8046 13.6928 24.5365 14.0125 24.3365C14.7649 23.8737 15.5584 23.49 16.3931 23.1856C17.2277 22.8811 18.0801 22.6558 18.95 22.5096L21.625 26.0833L24.2688 22.5096C25.1488 22.6558 26.0051 22.8811 26.8376 23.1856C27.6701 23.49 28.467 23.8737 29.2281 24.3365C29.549 24.5353 29.7943 24.8007 29.9641 25.133C30.1339 25.4653 30.2292 25.8162 30.25 26.1859V29.8974H13ZM14.5844 28.2308H21.175L18.325 24.391C17.6644 24.5503 17.0222 24.7573 16.3983 25.0121C15.7744 25.2668 15.1698 25.562 14.5844 25.8974V28.2308ZM22.075 28.2308H28.625V25.8974C28.0458 25.5556 27.4443 25.2644 26.8205 25.024C26.1966 24.7836 25.5543 24.5833 24.8938 24.4231L22.075 28.2308ZM3.13989 27.3333C2.40287 27.3333 1.77863 27.0697 1.26716 26.5424C0.755721 26.0152 0.5 25.3814 0.5 24.641V3.35895C0.5 2.61856 0.757034 1.98475 1.2711 1.45753C1.78514 0.930282 2.40311 0.666656 3.12498 0.666656H23.875C24.5969 0.666656 25.2149 0.930282 25.7289 1.45753C26.243 1.98475 26.5 2.61856 26.5 3.35895V9.51282C26.2542 9.27777 26.0042 9.06516 25.75 8.87499C25.4958 8.68482 25.2042 8.53845 24.875 8.43586V3.35895C24.875 3.05981 24.7813 2.81409 24.5938 2.62178C24.4063 2.42947 24.1667 2.33332 23.875 2.33332H3.12498C2.83332 2.33332 2.59374 2.42947 2.40625 2.62178C2.21875 2.81409 2.125 3.05981 2.125 3.35895V24.641C2.125 24.9402 2.21875 25.1859 2.40625 25.3782C2.59374 25.5705 2.83332 25.6667 3.12498 25.6667H8.55626C8.53749 25.7585 8.52343 25.8504 8.51405 25.9423C8.50468 26.0342 8.5 26.1261 8.5 26.2179V27.3333H3.13989ZM6.1875 8.55128H18.25C18.6416 8.31623 19.0542 8.14528 19.4875 8.03845C19.9209 7.93161 20.3625 7.85682 20.8125 7.81407V6.88462H6.1875V8.55128ZM6.1875 14.8333H13.5312C13.5729 14.5278 13.6287 14.2414 13.6985 13.9744C13.7682 13.7073 13.849 13.438 13.9406 13.1667H6.1875V14.8333ZM6.1875 21.1154H10.7312C11.0083 20.8868 11.2953 20.6699 11.5922 20.4647C11.8891 20.2596 12.1927 20.0844 12.5031 19.9391V19.4487H6.1875V21.1154ZM2.125 25.6667V2.33332V8.42628V7.74999V25.6667Z" fill="#1C1B1F"/>
</svg>
