<svg width="30" height="23" viewBox="0 0 30 23" fill="none" xmlns="http://www.w3.org/2000/svg">
<path d="M26.6045 12.1875H8.49364V10.8125H26.6045L23.2978 7.94088L24.4183 6.95191L29.6555 11.5L24.4183 16.0481L23.2978 15.0591L26.6045 12.1875ZM18.3895 7.00482V2.72114C18.3895 2.47435 18.2981 2.27163 18.1154 2.11298C17.9327 1.95433 17.6993 1.875 17.4151 1.875H2.89105C2.60687 1.875 2.37343 1.95433 2.19074 2.11298C2.00805 2.27163 1.91671 2.47435 1.91671 2.72114V20.2789C1.91671 20.5257 2.00805 20.7284 2.19074 20.887C2.37343 21.0457 2.60687 21.125 2.89105 21.125H17.4151C17.6993 21.125 17.9327 21.0457 18.1154 20.887C18.2981 20.7284 18.3895 20.5257 18.3895 20.2789V15.9952H19.9728V20.2789C19.9728 20.8941 19.7236 21.4181 19.2253 21.8509C18.7269 22.2836 18.1236 22.5 17.4151 22.5H2.89105C2.18262 22.5 1.57922 22.2836 1.08087 21.8509C0.582538 21.4181 0.333374 20.8941 0.333374 20.2789V2.72114C0.333374 2.10592 0.582538 1.58192 1.08087 1.14914C1.57922 0.716378 2.18262 0.5 2.89105 0.5H17.4151C18.1236 0.5 18.7269 0.716378 19.2253 1.14914C19.7236 1.58192 19.9728 2.10592 19.9728 2.72114V7.00482H18.3895Z" fill="#1C1B1F"/>
</svg>
