<svg width="28" height="29" viewBox="0 0 28 29" fill="none" xmlns="http://www.w3.org/2000/svg">
<path d="M12.0208 28.7468L10.9307 27.7063L14.612 24.3157H7.20686C7.02618 24.942 6.6552 25.4632 6.09394 25.8792C5.53267 26.2952 4.87955 26.5032 4.13456 26.5032C3.25494 26.5032 2.50725 26.2197 1.89149 25.6525C1.27576 25.0854 0.967896 24.3967 0.967896 23.5865C0.967896 22.9004 1.19372 22.2988 1.64536 21.7819C2.09704 21.2649 2.66288 20.9232 3.3429 20.7568V8.2432C2.66288 8.07678 2.09704 7.73509 1.64536 7.21814C1.19372 6.70118 0.967896 6.09962 0.967896 5.41345C0.967896 4.60327 1.27576 3.91461 1.89149 3.34747C2.50725 2.78034 3.25494 2.49678 4.13456 2.49678C4.87955 2.49678 5.53267 2.70478 6.09394 3.12077C6.6552 3.53678 7.02618 4.05795 7.20686 4.68428H14.612L10.9003 1.29366L12.0208 0.253174L17.6234 5.41345L12.0208 10.5737L10.9003 9.53324L14.612 6.14262H7.20686C7.05056 6.66239 6.77246 7.10644 6.37257 7.47477C5.97267 7.84309 5.49056 8.09924 4.92623 8.2432V20.7568C5.49056 20.9008 5.97267 21.1569 6.37257 21.5252C6.77246 21.8936 7.05056 22.3376 7.20686 22.8574H14.5815L10.9307 19.4668L12.0208 18.4263L17.6234 23.5865L12.0208 28.7468ZM23.8725 26.5032C22.9949 26.5032 22.2465 26.2197 21.6273 25.6525C21.0082 25.0854 20.6987 24.3967 20.6987 23.5865C20.6987 22.9031 20.9245 22.3008 21.3762 21.7797C21.8278 21.2586 22.3937 20.9176 23.0737 20.7568V8.2432C22.3937 8.0824 21.8278 7.74144 21.3762 7.22032C20.9245 6.69919 20.6987 6.0969 20.6987 5.41345C20.6987 4.60327 21.0059 3.91461 21.6202 3.34747C22.2345 2.78034 22.9805 2.49678 23.8582 2.49678C24.7358 2.49678 25.4842 2.78034 26.1034 3.34747C26.7225 3.91461 27.032 4.60327 27.032 5.41345C27.032 6.0969 26.8062 6.69919 26.3545 7.22032C25.9029 7.74144 25.337 8.0824 24.657 8.2432V20.7568C25.337 20.9232 25.9029 21.2649 26.3545 21.7819C26.8062 22.2988 27.032 22.9004 27.032 23.5865C27.032 24.3967 26.7248 25.0854 26.1105 25.6525C25.4962 26.2197 24.7502 26.5032 23.8725 26.5032ZM4.13456 25.0449C4.58317 25.0449 4.95922 24.9051 5.26269 24.6256C5.56616 24.3461 5.7179 23.9997 5.7179 23.5865C5.7179 23.1734 5.56616 22.827 5.26269 22.5475C4.95922 22.268 4.58317 22.1282 4.13456 22.1282C3.68595 22.1282 3.30991 22.268 3.00644 22.5475C2.70297 22.827 2.55123 23.1734 2.55123 23.5865C2.55123 23.9997 2.70297 24.3461 3.00644 24.6256C3.30991 24.9051 3.68595 25.0449 4.13456 25.0449ZM23.8654 25.0449C24.314 25.0449 24.69 24.9051 24.9935 24.6256C25.2969 24.3461 25.4487 23.9997 25.4487 23.5865C25.4487 23.1734 25.2969 22.827 24.9935 22.5475C24.69 22.268 24.314 22.1282 23.8654 22.1282C23.4167 22.1282 23.0407 22.268 22.7372 22.5475C22.4338 22.827 22.282 23.1734 22.282 23.5865C22.282 23.9997 22.4338 24.3461 22.7372 24.6256C23.0407 24.9051 23.4167 25.0449 23.8654 25.0449ZM4.13456 6.87178C4.58317 6.87178 4.95922 6.73203 5.26269 6.45251C5.56616 6.173 5.7179 5.82664 5.7179 5.41345C5.7179 5.00026 5.56616 4.6539 5.26269 4.37439C4.95922 4.09487 4.58317 3.95512 4.13456 3.95512C3.68595 3.95512 3.30991 4.09487 3.00644 4.37439C2.70297 4.6539 2.55123 5.00026 2.55123 5.41345C2.55123 5.82664 2.70297 6.173 3.00644 6.45251C3.30991 6.73203 3.68595 6.87178 4.13456 6.87178ZM23.8654 6.87178C24.314 6.87178 24.69 6.73203 24.9935 6.45251C25.2969 6.173 25.4487 5.82664 25.4487 5.41345C25.4487 5.00026 25.2969 4.6539 24.9935 4.37439C24.69 4.09487 24.314 3.95512 23.8654 3.95512C23.4167 3.95512 23.0407 4.09487 22.7372 4.37439C22.4338 4.6539 22.282 5.00026 22.282 5.41345C22.282 5.82664 22.4338 6.173 22.7372 6.45251C23.0407 6.73203 23.4167 6.87178 23.8654 6.87178Z" fill="#1C1B1F"/>
</svg>
