<svg width="47" height="47" viewBox="0 0 47 47" fill="none" xmlns="http://www.w3.org/2000/svg">
<mask id="mask0_136_30" style="mask-type:alpha" maskUnits="userSpaceOnUse" x="0" y="0" width="47" height="47">
<rect width="47" height="47" fill="#D9D9D9"/>
</mask>
<g mask="url(#mask0_136_30)">
<path d="M5.875 41.125V15.6667L31.3333 5.875V23.5H33.2917C33.2917 22.4229 33.6752 21.5009 34.4422 20.7339C35.2092 19.9668 36.1313 19.5833 37.2083 19.5833C38.2854 19.5833 39.2075 19.9668 39.9745 20.7339C40.7415 21.5009 41.125 22.4229 41.125 23.5V41.125H5.875ZM9.79167 37.2083H17.625V23.5H27.4167V11.5542L9.79167 18.3594V37.2083ZM21.5417 37.2083H27.4167V31.3333H31.3333V37.2083H37.2083V27.4167H21.5417V37.2083Z" fill="#5352ED"/>
</g>
</svg>
